# xmcd
#
# Track frame offsets:
#	150
#	11481
#	25643
#	37804
#	51276
#	67399
#	78573
#	88934
#	103002
#	117158
#	132254
#	143012
#	159088
#	171569
#
# Disc length: 2498 seconds
#
# Revision: 1
# Processed by: cddbd v1.5.1PL0 Copyright (c) Steve Scherf et al.
# Submitted via: EasyCDDAExtractor 6.5.4.1
#
DISCID=b709c00e
DTITLE=Wenche - Country From My Heart
DYEAR=2004
DGENRE=Country
TTITLE0=Oh lonesome me
TTITLE1=Rose garden
TTITLE2=Stand by your man
TTITLE3=Jambalaya
TTITLE4=Nobody's child
TTITLE5=Seven lonely days
TTITLE6=You ain't woman enough to take my man
TTITLE7=Crying time
TTITLE8=Let me be there
TTITLE9=Banks of the Ohio
TTITLE10=Snowbird
TTITLE11=To know him is to love him
TTITLE12=Top of the world
TTITLE13=Together again
EXTD=
EXTT0=
EXTT1=
EXTT2=
EXTT3=
EXTT4=
EXTT5=
EXTT6=
EXTT7=
EXTT8=
EXTT9=
EXTT10=
EXTT11=
EXTT12=
EXTT13=
PLAYORDER=
